<?xml version="1.0" encoding="utf-8" standalone="no"?>
<!DOCTYPE svg PUBLIC "-//W3C//DTD SVG 1.1//EN"
  "http://www.w3.org/Graphics/SVG/1.1/DTD/svg11.dtd">
<!-- Created with matplotlib (http://matplotlib.org/) -->
<svg height="288pt" version="1.1" viewBox="0 0 432 288" width="432pt" xmlns="http://www.w3.org/2000/svg" xmlns:xlink="http://www.w3.org/1999/xlink">
 <defs>
  <style type="text/css">
*{stroke-linecap:butt;stroke-linejoin:round;}
  </style>
 </defs>
 <g id="figure_1">
  <g id="patch_1">
   <path d="M 0 288 
L 432 288 
L 432 0 
L 0 0 
z
" style="fill:#ffffff;"/>
  </g>
  <g id="axes_1">
   <g id="PatchCollection_1">
    <path clip-path="url(#pc92190e329)" d="M 103.737662 67.034805 
L 120.681039 67.034805 
L 120.681039 68.917403 
L 128.211429 68.917403 
L 128.211429 70.8 
L 126.328831 70.8 
L 126.328831 72.682597 
L 122.563636 72.682597 
L 122.563636 74.565195 
L 120.681039 74.565195 
L 120.681039 78.33039 
L 122.563636 78.33039 
L 122.563636 85.860779 
L 98.08987 85.860779 
L 98.08987 80.212987 
L 92.442078 80.212987 
L 92.442078 72.682597 
L 103.737662 72.682597 
L 103.737662 67.034805 
" style="fill:#3787c0;"/>
    <path clip-path="url(#pc92190e329)" d="M 145.154805 44.443636 
L 152.685195 44.443636 
L 152.685195 50.091429 
L 171.511169 50.091429 
L 171.511169 51.974026 
L 173.393766 51.974026 
L 173.393766 55.739221 
L 171.511169 55.739221 
L 171.511169 57.621818 
L 167.745974 57.621818 
L 167.745974 63.26961 
L 163.980779 63.26961 
L 163.980779 55.739221 
L 158.332987 55.739221 
L 158.332987 65.152208 
L 160.215584 65.152208 
L 160.215584 68.917403 
L 154.567792 68.917403 
L 154.567792 72.682597 
L 156.45039 72.682597 
L 156.45039 74.565195 
L 145.154805 74.565195 
L 145.154805 68.917403 
L 147.037403 68.917403 
L 147.037403 65.152208 
L 143.272208 65.152208 
L 143.272208 70.8 
L 139.507013 70.8 
L 139.507013 78.33039 
L 135.741818 78.33039 
L 135.741818 76.447792 
L 128.211429 76.447792 
L 128.211429 80.212987 
L 133.859221 80.212987 
L 133.859221 82.095584 
L 131.976623 82.095584 
L 131.976623 85.860779 
L 122.563636 85.860779 
L 122.563636 78.33039 
L 120.681039 78.33039 
L 120.681039 74.565195 
L 122.563636 74.565195 
L 122.563636 72.682597 
L 126.328831 72.682597 
L 126.328831 70.8 
L 128.211429 70.8 
L 128.211429 68.917403 
L 120.681039 68.917403 
L 120.681039 67.034805 
L 128.211429 67.034805 
L 128.211429 55.739221 
L 145.154805 55.739221 
L 145.154805 44.443636 
" style="fill:#c9ddf0;"/>
    <path clip-path="url(#pc92190e329)" d="M 171.511169 50.091429 
L 184.689351 50.091429 
L 184.689351 51.974026 
L 180.924156 51.974026 
L 180.924156 55.739221 
L 177.158961 55.739221 
L 177.158961 61.387013 
L 175.276364 61.387013 
L 175.276364 67.034805 
L 177.158961 67.034805 
L 177.158961 70.8 
L 182.806753 70.8 
L 182.806753 65.152208 
L 179.041558 65.152208 
L 179.041558 61.387013 
L 184.689351 61.387013 
L 184.689351 59.504416 
L 186.571948 59.504416 
L 186.571948 72.682597 
L 188.454545 72.682597 
L 188.454545 70.8 
L 192.21974 70.8 
L 192.21974 67.034805 
L 194.102338 67.034805 
L 194.102338 72.682597 
L 190.337143 72.682597 
L 190.337143 76.447792 
L 184.689351 76.447792 
L 184.689351 74.565195 
L 179.041558 74.565195 
L 179.041558 78.33039 
L 177.158961 78.33039 
L 177.158961 80.212987 
L 175.276364 80.212987 
L 175.276364 83.978182 
L 169.628571 83.978182 
L 169.628571 80.212987 
L 173.393766 80.212987 
L 173.393766 76.447792 
L 169.628571 76.447792 
L 169.628571 78.33039 
L 165.863377 78.33039 
L 165.863377 82.095584 
L 163.980779 82.095584 
L 163.980779 83.978182 
L 158.332987 83.978182 
L 158.332987 87.743377 
L 156.45039 87.743377 
L 156.45039 91.508571 
L 148.92 91.508571 
L 148.92 93.391169 
L 143.272208 93.391169 
L 143.272208 89.625974 
L 150.802597 89.625974 
L 150.802597 83.978182 
L 147.037403 83.978182 
L 147.037403 82.095584 
L 150.802597 82.095584 
L 150.802597 78.33039 
L 152.685195 78.33039 
L 152.685195 76.447792 
L 156.45039 76.447792 
L 156.45039 72.682597 
L 154.567792 72.682597 
L 154.567792 68.917403 
L 160.215584 68.917403 
L 160.215584 65.152208 
L 158.332987 65.152208 
L 158.332987 55.739221 
L 163.980779 55.739221 
L 163.980779 63.26961 
L 167.745974 63.26961 
L 167.745974 57.621818 
L 171.511169 57.621818 
L 171.511169 55.739221 
L 173.393766 55.739221 
L 173.393766 51.974026 
L 171.511169 51.974026 
L 171.511169 50.091429 
" style="fill:#3b8bc2;"/>
    <path clip-path="url(#pc92190e329)" d="M 143.272208 65.152208 
L 147.037403 65.152208 
L 147.037403 68.917403 
L 145.154805 68.917403 
L 145.154805 74.565195 
L 156.45039 74.565195 
L 156.45039 76.447792 
L 152.685195 76.447792 
L 152.685195 78.33039 
L 150.802597 78.33039 
L 150.802597 82.095584 
L 147.037403 82.095584 
L 147.037403 83.978182 
L 150.802597 83.978182 
L 150.802597 89.625974 
L 143.272208 89.625974 
L 143.272208 93.391169 
L 148.92 93.391169 
L 148.92 91.508571 
L 156.45039 91.508571 
L 156.45039 87.743377 
L 158.332987 87.743377 
L 158.332987 83.978182 
L 163.980779 83.978182 
L 163.980779 82.095584 
L 165.863377 82.095584 
L 165.863377 78.33039 
L 169.628571 78.33039 
L 169.628571 76.447792 
L 173.393766 76.447792 
L 173.393766 80.212987 
L 169.628571 80.212987 
L 169.628571 82.095584 
L 167.745974 82.095584 
L 167.745974 85.860779 
L 177.158961 85.860779 
L 177.158961 89.625974 
L 171.511169 89.625974 
L 171.511169 93.391169 
L 169.628571 93.391169 
L 169.628571 99.038961 
L 162.098182 99.038961 
L 162.098182 97.156364 
L 165.863377 97.156364 
L 165.863377 91.508571 
L 162.098182 91.508571 
L 162.098182 95.273766 
L 160.215584 95.273766 
L 160.215584 97.156364 
L 150.802597 97.156364 
L 150.802597 99.038961 
L 139.507013 99.038961 
L 139.507013 93.391169 
L 133.859221 93.391169 
L 133.859221 85.860779 
L 131.976623 85.860779 
L 131.976623 82.095584 
L 133.859221 82.095584 
L 133.859221 80.212987 
L 128.211429 80.212987 
L 128.211429 76.447792 
L 135.741818 76.447792 
L 135.741818 78.33039 
L 139.507013 78.33039 
L 139.507013 70.8 
L 143.272208 70.8 
L 143.272208 65.152208 
" style="fill:#083979;"/>
    <path clip-path="url(#pc92190e329)" d="M 195.984935 136.690909 
L 199.75013 136.690909 
L 199.75013 138.573506 
L 201.632727 138.573506 
L 201.632727 142.338701 
L 199.75013 142.338701 
L 199.75013 144.221299 
L 197.867532 144.221299 
L 197.867532 147.986494 
L 203.515325 147.986494 
L 203.515325 146.103896 
L 207.280519 146.103896 
L 207.280519 144.221299 
L 205.397922 144.221299 
L 205.397922 140.456104 
L 209.163117 140.456104 
L 209.163117 142.338701 
L 211.045714 142.338701 
L 211.045714 146.103896 
L 220.458701 146.103896 
L 220.458701 149.869091 
L 214.810909 149.869091 
L 214.810909 151.751688 
L 205.397922 151.751688 
L 205.397922 153.634286 
L 207.280519 153.634286 
L 207.280519 164.92987 
L 209.163117 164.92987 
L 209.163117 159.282078 
L 214.810909 159.282078 
L 214.810909 164.92987 
L 212.928312 164.92987 
L 212.928312 168.695065 
L 211.045714 168.695065 
L 211.045714 170.577662 
L 201.632727 170.577662 
L 201.632727 168.695065 
L 197.867532 168.695065 
L 197.867532 164.92987 
L 195.984935 164.92987 
L 195.984935 166.812468 
L 192.21974 166.812468 
L 192.21974 168.695065 
L 186.571948 168.695065 
L 186.571948 174.342857 
L 179.041558 174.342857 
L 179.041558 164.92987 
L 175.276364 164.92987 
L 175.276364 157.399481 
L 173.393766 157.399481 
L 173.393766 163.047273 
L 165.863377 163.047273 
L 165.863377 161.164675 
L 163.980779 161.164675 
L 163.980779 159.282078 
L 162.098182 159.282078 
L 162.098182 155.516883 
L 169.628571 155.516883 
L 169.628571 153.634286 
L 175.276364 153.634286 
L 175.276364 151.751688 
L 179.041558 151.751688 
L 179.041558 149.869091 
L 182.806753 149.869091 
L 182.806753 153.634286 
L 180.924156 153.634286 
L 180.924156 155.516883 
L 179.041558 155.516883 
L 179.041558 159.282078 
L 186.571948 159.282078 
L 186.571948 157.399481 
L 192.21974 157.399481 
L 192.21974 149.869091 
L 188.454545 149.869091 
L 188.454545 144.221299 
L 192.21974 144.221299 
L 192.21974 142.338701 
L 194.102338 142.338701 
L 194.102338 144.221299 
L 195.984935 144.221299 
L 195.984935 136.690909 
" style="fill:#083370;"/>
    <path clip-path="url(#pc92190e329)" d="M 214.810909 149.869091 
L 220.458701 149.869091 
L 220.458701 151.751688 
L 224.223896 151.751688 
L 224.223896 157.399481 
L 226.106494 157.399481 
L 226.106494 161.164675 
L 229.871688 161.164675 
L 229.871688 170.577662 
L 227.989091 170.577662 
L 227.989091 164.92987 
L 224.223896 164.92987 
L 224.223896 166.812468 
L 218.576104 166.812468 
L 218.576104 168.695065 
L 216.693506 168.695065 
L 216.693506 170.577662 
L 218.576104 170.577662 
L 218.576104 174.342857 
L 216.693506 174.342857 
L 216.693506 179.990649 
L 214.810909 179.990649 
L 214.810909 178.108052 
L 207.280519 178.108052 
L 207.280519 176.225455 
L 201.632727 176.225455 
L 201.632727 172.46026 
L 194.102338 172.46026 
L 194.102338 174.342857 
L 190.337143 174.342857 
L 190.337143 176.225455 
L 186.571948 176.225455 
L 186.571948 179.990649 
L 182.806753 179.990649 
L 182.806753 181.873247 
L 180.924156 181.873247 
L 180.924156 178.108052 
L 179.041558 178.108052 
L 179.041558 176.225455 
L 177.158961 176.225455 
L 177.158961 170.577662 
L 175.276364 170.577662 
L 175.276364 172.46026 
L 171.511169 172.46026 
L 171.511169 166.812468 
L 179.041558 166.812468 
L 179.041558 174.342857 
L 186.571948 174.342857 
L 186.571948 168.695065 
L 192.21974 168.695065 
L 192.21974 166.812468 
L 195.984935 166.812468 
L 195.984935 164.92987 
L 197.867532 164.92987 
L 197.867532 168.695065 
L 201.632727 168.695065 
L 201.632727 170.577662 
L 211.045714 170.577662 
L 211.045714 168.695065 
L 212.928312 168.695065 
L 212.928312 164.92987 
L 214.810909 164.92987 
L 214.810909 159.282078 
L 209.163117 159.282078 
L 209.163117 164.92987 
L 207.280519 164.92987 
L 207.280519 153.634286 
L 205.397922 153.634286 
L 205.397922 151.751688 
L 214.810909 151.751688 
L 214.810909 149.869091 
" style="fill:#084488;"/>
    <path clip-path="url(#pc92190e329)" d="M 194.102338 172.46026 
L 201.632727 172.46026 
L 201.632727 176.225455 
L 207.280519 176.225455 
L 207.280519 178.108052 
L 212.928312 178.108052 
L 212.928312 181.873247 
L 205.397922 181.873247 
L 205.397922 179.990649 
L 201.632727 179.990649 
L 201.632727 187.521039 
L 211.045714 187.521039 
L 211.045714 195.051429 
L 209.163117 195.051429 
L 209.163117 196.934026 
L 207.280519 196.934026 
L 207.280519 200.699221 
L 205.397922 200.699221 
L 205.397922 206.347013 
L 209.163117 206.347013 
L 209.163117 204.464416 
L 212.928312 204.464416 
L 212.928312 200.699221 
L 218.576104 200.699221 
L 218.576104 195.051429 
L 222.341299 195.051429 
L 222.341299 196.934026 
L 224.223896 196.934026 
L 224.223896 193.168831 
L 226.106494 193.168831 
L 226.106494 195.051429 
L 227.989091 195.051429 
L 227.989091 208.22961 
L 229.871688 208.22961 
L 229.871688 211.994805 
L 227.989091 211.994805 
L 227.989091 217.642597 
L 229.871688 217.642597 
L 229.871688 219.525195 
L 220.458701 219.525195 
L 220.458701 213.877403 
L 214.810909 213.877403 
L 214.810909 208.22961 
L 184.689351 208.22961 
L 184.689351 202.581818 
L 179.041558 202.581818 
L 179.041558 196.934026 
L 180.924156 196.934026 
L 180.924156 193.168831 
L 182.806753 193.168831 
L 182.806753 195.051429 
L 184.689351 195.051429 
L 184.689351 196.934026 
L 186.571948 196.934026 
L 186.571948 185.638442 
L 180.924156 185.638442 
L 180.924156 181.873247 
L 182.806753 181.873247 
L 182.806753 179.990649 
L 186.571948 179.990649 
L 186.571948 176.225455 
L 190.337143 176.225455 
L 190.337143 174.342857 
L 194.102338 174.342857 
L 194.102338 172.46026 
" style="fill:#f7fbff;"/>
    <path clip-path="url(#pc92190e329)" d="M 331.531948 211.994805 
L 337.17974 211.994805 
L 337.17974 234.585974 
L 339.062338 234.585974 
L 339.062338 230.820779 
L 342.827532 230.820779 
L 342.827532 228.938182 
L 346.592727 228.938182 
L 346.592727 234.585974 
L 348.475325 234.585974 
L 348.475325 236.468571 
L 350.357922 236.468571 
L 350.357922 242.116364 
L 335.297143 242.116364 
L 335.297143 230.820779 
L 325.884156 230.820779 
L 325.884156 236.468571 
L 314.588571 236.468571 
L 314.588571 234.585974 
L 312.705974 234.585974 
L 312.705974 236.468571 
L 307.058182 236.468571 
L 307.058182 219.525195 
L 308.940779 219.525195 
L 308.940779 221.407792 
L 318.353766 221.407792 
L 318.353766 223.29039 
L 320.236364 223.29039 
L 320.236364 225.172987 
L 322.118961 225.172987 
L 322.118961 227.055584 
L 324.001558 227.055584 
L 324.001558 225.172987 
L 325.884156 225.172987 
L 325.884156 221.407792 
L 331.531948 221.407792 
L 331.531948 211.994805 
" style="fill:#08306b;"/>
   </g>
   <g id="text_1">
    <!-- Jul-2019 -->
    <defs>
     <path d="M 9.8125 72.90625 
L 19.671875 72.90625 
L 19.671875 5.078125 
Q 19.671875 -8.109375 14.671875 -14.0625 
Q 9.671875 -20.015625 -1.421875 -20.015625 
L -5.171875 -20.015625 
L -5.171875 -11.71875 
L -2.09375 -11.71875 
Q 4.4375 -11.71875 7.125 -8.046875 
Q 9.8125 -4.390625 9.8125 5.078125 
z
" id="DejaVuSans-4a"/>
     <path d="M 8.5 21.578125 
L 8.5 54.6875 
L 17.484375 54.6875 
L 17.484375 21.921875 
Q 17.484375 14.15625 20.5 10.265625 
Q 23.53125 6.390625 29.59375 6.390625 
Q 36.859375 6.390625 41.078125 11.03125 
Q 45.3125 15.671875 45.3125 23.6875 
L 45.3125 54.6875 
L 54.296875 54.6875 
L 54.296875 0 
L 45.3125 0 
L 45.3125 8.40625 
Q 42.046875 3.421875 37.71875 1 
Q 33.40625 -1.421875 27.6875 -1.421875 
Q 18.265625 -1.421875 13.375 4.4375 
Q 8.5 10.296875 8.5 21.578125 
z
M 31.109375 56 
z
" id="DejaVuSans-75"/>
     <path d="M 9.421875 75.984375 
L 18.40625 75.984375 
L 18.40625 0 
L 9.421875 0 
z
" id="DejaVuSans-6c"/>
     <path d="M 4.890625 31.390625 
L 31.203125 31.390625 
L 31.203125 23.390625 
L 4.890625 23.390625 
z
" id="DejaVuSans-2d"/>
     <path d="M 19.1875 8.296875 
L 53.609375 8.296875 
L 53.609375 0 
L 7.328125 0 
L 7.328125 8.296875 
Q 12.9375 14.109375 22.625 23.890625 
Q 32.328125 33.6875 34.8125 36.53125 
Q 39.546875 41.84375 41.421875 45.53125 
Q 43.3125 49.21875 43.3125 52.78125 
Q 43.3125 58.59375 39.234375 62.25 
Q 35.15625 65.921875 28.609375 65.921875 
Q 23.96875 65.921875 18.8125 64.3125 
Q 13.671875 62.703125 7.8125 59.421875 
L 7.8125 69.390625 
Q 13.765625 71.78125 18.9375 73 
Q 24.125 74.21875 28.421875 74.21875 
Q 39.75 74.21875 46.484375 68.546875 
Q 53.21875 62.890625 53.21875 53.421875 
Q 53.21875 48.921875 51.53125 44.890625 
Q 49.859375 40.875 45.40625 35.40625 
Q 44.1875 33.984375 37.640625 27.21875 
Q 31.109375 20.453125 19.1875 8.296875 
z
" id="DejaVuSans-32"/>
     <path d="M 31.78125 66.40625 
Q 24.171875 66.40625 20.328125 58.90625 
Q 16.5 51.421875 16.5 36.375 
Q 16.5 21.390625 20.328125 13.890625 
Q 24.171875 6.390625 31.78125 6.390625 
Q 39.453125 6.390625 43.28125 13.890625 
Q 47.125 21.390625 47.125 36.375 
Q 47.125 51.421875 43.28125 58.90625 
Q 39.453125 66.40625 31.78125 66.40625 
z
M 31.78125 74.21875 
Q 44.046875 74.21875 50.515625 64.515625 
Q 56.984375 54.828125 56.984375 36.375 
Q 56.984375 17.96875 50.515625 8.265625 
Q 44.046875 -1.421875 31.78125 -1.421875 
Q 19.53125 -1.421875 13.0625 8.265625 
Q 6.59375 17.96875 6.59375 36.375 
Q 6.59375 54.828125 13.0625 64.515625 
Q 19.53125 74.21875 31.78125 74.21875 
z
" id="DejaVuSans-30"/>
     <path d="M 12.40625 8.296875 
L 28.515625 8.296875 
L 28.515625 63.921875 
L 10.984375 60.40625 
L 10.984375 69.390625 
L 28.421875 72.90625 
L 38.28125 72.90625 
L 38.28125 8.296875 
L 54.390625 8.296875 
L 54.390625 0 
L 12.40625 0 
z
" id="DejaVuSans-31"/>
     <path d="M 10.984375 1.515625 
L 10.984375 10.5 
Q 14.703125 8.734375 18.5 7.8125 
Q 22.3125 6.890625 25.984375 6.890625 
Q 35.75 6.890625 40.890625 13.453125 
Q 46.046875 20.015625 46.78125 33.40625 
Q 43.953125 29.203125 39.59375 26.953125 
Q 35.25 24.703125 29.984375 24.703125 
Q 19.046875 24.703125 12.671875 31.3125 
Q 6.296875 37.9375 6.296875 49.421875 
Q 6.296875 60.640625 12.9375 67.421875 
Q 19.578125 74.21875 30.609375 74.21875 
Q 43.265625 74.21875 49.921875 64.515625 
Q 56.59375 54.828125 56.59375 36.375 
Q 56.59375 19.140625 48.40625 8.859375 
Q 40.234375 -1.421875 26.421875 -1.421875 
Q 22.703125 -1.421875 18.890625 -0.6875 
Q 15.09375 0.046875 10.984375 1.515625 
z
M 30.609375 32.421875 
Q 37.25 32.421875 41.125 36.953125 
Q 45.015625 41.5 45.015625 49.421875 
Q 45.015625 57.28125 41.125 61.84375 
Q 37.25 66.40625 30.609375 66.40625 
Q 23.96875 66.40625 20.09375 61.84375 
Q 16.21875 57.28125 16.21875 49.421875 
Q 16.21875 41.5 20.09375 36.953125 
Q 23.96875 32.421875 30.609375 32.421875 
z
" id="DejaVuSans-39"/>
    </defs>
    <g transform="translate(196.725938 28.56)scale(0.12 -0.12)">
     <use xlink:href="#DejaVuSans-4a"/>
     <use x="29.492188" xlink:href="#DejaVuSans-75"/>
     <use x="92.871094" xlink:href="#DejaVuSans-6c"/>
     <use x="120.654297" xlink:href="#DejaVuSans-2d"/>
     <use x="156.738281" xlink:href="#DejaVuSans-32"/>
     <use x="220.361328" xlink:href="#DejaVuSans-30"/>
     <use x="283.984375" xlink:href="#DejaVuSans-31"/>
     <use x="347.607422" xlink:href="#DejaVuSans-39"/>
    </g>
   </g>
  </g>
 </g>
 <defs>
  <clipPath id="pc92190e329">
   <rect height="217.44" width="283.707429" x="79.546286" y="34.56"/>
  </clipPath>
 </defs>
</svg>
