<?xml version="1.0" encoding="utf-8" standalone="no"?>
<!DOCTYPE svg PUBLIC "-//W3C//DTD SVG 1.1//EN"
  "http://www.w3.org/Graphics/SVG/1.1/DTD/svg11.dtd">
<!-- Created with matplotlib (http://matplotlib.org/) -->
<svg height="288pt" version="1.1" viewBox="0 0 432 288" width="432pt" xmlns="http://www.w3.org/2000/svg" xmlns:xlink="http://www.w3.org/1999/xlink">
 <defs>
  <style type="text/css">
*{stroke-linecap:butt;stroke-linejoin:round;}
  </style>
 </defs>
 <g id="figure_1">
  <g id="patch_1">
   <path d="M 0 288 
L 432 288 
L 432 0 
L 0 0 
z
" style="fill:#ffffff;"/>
  </g>
  <g id="axes_1">
   <g id="PatchCollection_1">
    <path clip-path="url(#p40af59ea81)" d="M 283.972662 44.443636 
L 302.460039 44.443636 
L 302.460039 48.709954 
L 310.992675 48.709954 
L 310.992675 51.554166 
L 305.304251 51.554166 
L 305.304251 57.24259 
L 302.460039 57.24259 
L 302.460039 58.664696 
L 301.037933 58.664696 
L 301.037933 60.086802 
L 298.193721 60.086802 
L 298.193721 61.508908 
L 299.615827 61.508908 
L 299.615827 62.931014 
L 302.460039 62.931014 
L 302.460039 64.35312 
L 305.304251 64.35312 
L 305.304251 61.508908 
L 308.148463 61.508908 
L 308.148463 64.35312 
L 306.726357 64.35312 
L 306.726357 65.775226 
L 303.882145 65.775226 
L 303.882145 67.197332 
L 305.304251 67.197332 
L 305.304251 68.619438 
L 301.037933 68.619438 
L 301.037933 70.041543 
L 298.193721 70.041543 
L 298.193721 68.619438 
L 292.505298 68.619438 
L 292.505298 65.775226 
L 291.083192 65.775226 
L 291.083192 68.619438 
L 288.23898 68.619438 
L 288.23898 70.041543 
L 286.816874 70.041543 
L 286.816874 68.619438 
L 282.550556 68.619438 
L 282.550556 67.197332 
L 279.706344 67.197332 
L 279.706344 62.931014 
L 282.550556 62.931014 
L 282.550556 61.508908 
L 283.972662 61.508908 
L 283.972662 64.35312 
L 286.816874 64.35312 
L 286.816874 62.931014 
L 289.661086 62.931014 
L 289.661086 61.508908 
L 291.083192 61.508908 
L 291.083192 64.35312 
L 295.349509 64.35312 
L 295.349509 60.086802 
L 286.816874 60.086802 
L 286.816874 58.664696 
L 291.083192 58.664696 
L 291.083192 57.24259 
L 292.505298 57.24259 
L 292.505298 48.709954 
L 293.927404 48.709954 
L 293.927404 45.865742 
L 292.505298 45.865742 
L 292.505298 47.287848 
L 289.661086 47.287848 
L 289.661086 50.13206 
L 283.972662 50.13206 
L 283.972662 44.443636 
" style="fill:#083877;"/>
    <path clip-path="url(#p40af59ea81)" d="M 262.641073 48.709954 
L 283.972662 48.709954 
L 283.972662 50.13206 
L 286.816874 50.13206 
L 286.816874 51.554166 
L 288.23898 51.554166 
L 288.23898 52.976272 
L 282.550556 52.976272 
L 282.550556 51.554166 
L 281.12845 51.554166 
L 281.12845 50.13206 
L 278.284238 50.13206 
L 278.284238 54.398378 
L 279.706344 54.398378 
L 279.706344 58.664696 
L 278.284238 58.664696 
L 278.284238 60.086802 
L 276.862132 60.086802 
L 276.862132 62.931014 
L 278.284238 62.931014 
L 278.284238 68.619438 
L 276.862132 68.619438 
L 276.862132 70.041543 
L 269.751602 70.041543 
L 269.751602 71.463649 
L 271.173708 71.463649 
L 271.173708 72.885755 
L 266.90739 72.885755 
L 266.90739 71.463649 
L 261.218967 71.463649 
L 261.218967 67.197332 
L 264.063179 67.197332 
L 264.063179 65.775226 
L 258.374755 65.775226 
L 258.374755 64.35312 
L 262.641073 64.35312 
L 262.641073 61.508908 
L 261.218967 61.508908 
L 261.218967 58.664696 
L 262.641073 58.664696 
L 262.641073 55.820484 
L 258.374755 55.820484 
L 258.374755 54.398378 
L 255.530543 54.398378 
L 255.530543 57.24259 
L 254.108437 57.24259 
L 254.108437 52.976272 
L 262.641073 52.976272 
L 262.641073 48.709954 
" style="fill:#08316d;"/>
    <path clip-path="url(#p40af59ea81)" d="M 255.530543 54.398378 
L 258.374755 54.398378 
L 258.374755 55.820484 
L 262.641073 55.820484 
L 262.641073 58.664696 
L 261.218967 58.664696 
L 261.218967 61.508908 
L 262.641073 61.508908 
L 262.641073 64.35312 
L 258.374755 64.35312 
L 258.374755 68.619438 
L 256.952649 68.619438 
L 256.952649 70.041543 
L 255.530543 70.041543 
L 255.530543 75.729967 
L 254.108437 75.729967 
L 254.108437 77.152073 
L 249.842119 77.152073 
L 249.842119 79.996285 
L 242.731589 79.996285 
L 242.731589 75.729967 
L 245.575801 75.729967 
L 245.575801 57.24259 
L 255.530543 57.24259 
L 255.530543 54.398378 
" style="fill:#08326e;"/>
    <path clip-path="url(#p40af59ea81)" d="M 310.992675 48.709954 
L 316.681099 48.709954 
L 316.681099 52.976272 
L 320.947417 52.976272 
L 320.947417 57.24259 
L 318.103205 57.24259 
L 318.103205 62.931014 
L 316.681099 62.931014 
L 316.681099 64.35312 
L 315.258993 64.35312 
L 315.258993 67.197332 
L 313.836887 67.197332 
L 313.836887 68.619438 
L 310.992675 68.619438 
L 310.992675 65.775226 
L 309.570569 65.775226 
L 309.570569 68.619438 
L 308.148463 68.619438 
L 308.148463 70.041543 
L 315.258993 70.041543 
L 315.258993 71.463649 
L 318.103205 71.463649 
L 318.103205 74.307861 
L 312.414781 74.307861 
L 312.414781 71.463649 
L 309.570569 71.463649 
L 309.570569 72.885755 
L 308.148463 72.885755 
L 308.148463 71.463649 
L 306.726357 71.463649 
L 306.726357 72.885755 
L 305.304251 72.885755 
L 305.304251 74.307861 
L 303.882145 74.307861 
L 303.882145 75.729967 
L 305.304251 75.729967 
L 305.304251 77.152073 
L 306.726357 77.152073 
L 306.726357 78.574179 
L 309.570569 78.574179 
L 309.570569 77.152073 
L 312.414781 77.152073 
L 312.414781 81.418391 
L 313.836887 81.418391 
L 313.836887 84.262603 
L 310.992675 84.262603 
L 310.992675 88.528921 
L 309.570569 88.528921 
L 309.570569 87.106815 
L 308.148463 87.106815 
L 308.148463 89.951027 
L 302.460039 89.951027 
L 302.460039 91.373133 
L 299.615827 91.373133 
L 299.615827 82.840497 
L 293.927404 82.840497 
L 293.927404 79.996285 
L 295.349509 79.996285 
L 295.349509 77.152073 
L 298.193721 77.152073 
L 298.193721 74.307861 
L 301.037933 74.307861 
L 301.037933 68.619438 
L 305.304251 68.619438 
L 305.304251 67.197332 
L 303.882145 67.197332 
L 303.882145 65.775226 
L 306.726357 65.775226 
L 306.726357 64.35312 
L 308.148463 64.35312 
L 308.148463 61.508908 
L 305.304251 61.508908 
L 305.304251 64.35312 
L 302.460039 64.35312 
L 302.460039 62.931014 
L 299.615827 62.931014 
L 299.615827 61.508908 
L 298.193721 61.508908 
L 298.193721 60.086802 
L 301.037933 60.086802 
L 301.037933 58.664696 
L 302.460039 58.664696 
L 302.460039 57.24259 
L 305.304251 57.24259 
L 305.304251 51.554166 
L 310.992675 51.554166 
L 310.992675 48.709954 
" style="fill:#1c6bb0;"/>
    <path clip-path="url(#p40af59ea81)" d="M 292.505298 45.865742 
L 293.927404 45.865742 
L 293.927404 48.709954 
L 292.505298 48.709954 
L 292.505298 57.24259 
L 291.083192 57.24259 
L 291.083192 58.664696 
L 286.816874 58.664696 
L 286.816874 60.086802 
L 295.349509 60.086802 
L 295.349509 64.35312 
L 291.083192 64.35312 
L 291.083192 61.508908 
L 289.661086 61.508908 
L 289.661086 62.931014 
L 286.816874 62.931014 
L 286.816874 64.35312 
L 283.972662 64.35312 
L 283.972662 61.508908 
L 282.550556 61.508908 
L 282.550556 62.931014 
L 279.706344 62.931014 
L 279.706344 67.197332 
L 282.550556 67.197332 
L 282.550556 68.619438 
L 286.816874 68.619438 
L 286.816874 70.041543 
L 288.23898 70.041543 
L 288.23898 68.619438 
L 291.083192 68.619438 
L 291.083192 65.775226 
L 292.505298 65.775226 
L 292.505298 68.619438 
L 298.193721 68.619438 
L 298.193721 70.041543 
L 301.037933 70.041543 
L 301.037933 74.307861 
L 298.193721 74.307861 
L 298.193721 77.152073 
L 295.349509 77.152073 
L 295.349509 79.996285 
L 293.927404 79.996285 
L 293.927404 82.840497 
L 299.615827 82.840497 
L 299.615827 85.684709 
L 296.771615 85.684709 
L 296.771615 87.106815 
L 293.927404 87.106815 
L 293.927404 85.684709 
L 292.505298 85.684709 
L 292.505298 84.262603 
L 288.23898 84.262603 
L 288.23898 87.106815 
L 286.816874 87.106815 
L 286.816874 88.528921 
L 285.394768 88.528921 
L 285.394768 82.840497 
L 283.972662 82.840497 
L 283.972662 81.418391 
L 285.394768 81.418391 
L 285.394768 77.152073 
L 282.550556 77.152073 
L 282.550556 70.041543 
L 281.12845 70.041543 
L 281.12845 68.619438 
L 279.706344 68.619438 
L 279.706344 74.307861 
L 276.862132 74.307861 
L 276.862132 78.574179 
L 275.440026 78.574179 
L 275.440026 77.152073 
L 274.01792 77.152073 
L 274.01792 79.996285 
L 269.751602 79.996285 
L 269.751602 82.840497 
L 268.329496 82.840497 
L 268.329496 84.262603 
L 264.063179 84.262603 
L 264.063179 82.840497 
L 265.485284 82.840497 
L 265.485284 81.418391 
L 268.329496 81.418391 
L 268.329496 78.574179 
L 266.90739 78.574179 
L 266.90739 77.152073 
L 264.063179 77.152073 
L 264.063179 79.996285 
L 259.796861 79.996285 
L 259.796861 81.418391 
L 258.374755 81.418391 
L 258.374755 78.574179 
L 256.952649 78.574179 
L 256.952649 75.729967 
L 262.641073 75.729967 
L 262.641073 72.885755 
L 259.796861 72.885755 
L 259.796861 74.307861 
L 258.374755 74.307861 
L 258.374755 65.775226 
L 264.063179 65.775226 
L 264.063179 67.197332 
L 261.218967 67.197332 
L 261.218967 71.463649 
L 266.90739 71.463649 
L 266.90739 72.885755 
L 271.173708 72.885755 
L 271.173708 71.463649 
L 269.751602 71.463649 
L 269.751602 70.041543 
L 276.862132 70.041543 
L 276.862132 68.619438 
L 278.284238 68.619438 
L 278.284238 62.931014 
L 276.862132 62.931014 
L 276.862132 60.086802 
L 278.284238 60.086802 
L 278.284238 58.664696 
L 279.706344 58.664696 
L 279.706344 54.398378 
L 278.284238 54.398378 
L 278.284238 50.13206 
L 281.12845 50.13206 
L 281.12845 51.554166 
L 282.550556 51.554166 
L 282.550556 52.976272 
L 288.23898 52.976272 
L 288.23898 51.554166 
L 286.816874 51.554166 
L 286.816874 50.13206 
L 289.661086 50.13206 
L 289.661086 47.287848 
L 292.505298 47.287848 
L 292.505298 45.865742 
" style="fill:#083c7d;"/>
    <path clip-path="url(#p40af59ea81)" d="M 318.103205 57.24259 
L 333.74637 57.24259 
L 333.74637 67.197332 
L 338.012688 67.197332 
L 338.012688 92.795239 
L 336.590582 92.795239 
L 336.590582 91.373133 
L 333.74637 91.373133 
L 333.74637 89.951027 
L 330.902158 89.951027 
L 330.902158 87.106815 
L 329.480052 87.106815 
L 329.480052 84.262603 
L 330.902158 84.262603 
L 330.902158 81.418391 
L 329.480052 81.418391 
L 329.480052 82.840497 
L 326.63584 82.840497 
L 326.63584 85.684709 
L 323.791629 85.684709 
L 323.791629 87.106815 
L 325.213734 87.106815 
L 325.213734 88.528921 
L 322.369523 88.528921 
L 322.369523 87.106815 
L 320.947417 87.106815 
L 320.947417 89.951027 
L 319.525311 89.951027 
L 319.525311 91.373133 
L 316.681099 91.373133 
L 316.681099 87.106815 
L 318.103205 87.106815 
L 318.103205 81.418391 
L 322.369523 81.418391 
L 322.369523 78.574179 
L 319.525311 78.574179 
L 319.525311 75.729967 
L 322.369523 75.729967 
L 322.369523 77.152073 
L 325.213734 77.152073 
L 325.213734 74.307861 
L 320.947417 74.307861 
L 320.947417 71.463649 
L 319.525311 71.463649 
L 319.525311 68.619438 
L 316.681099 68.619438 
L 316.681099 67.197332 
L 315.258993 67.197332 
L 315.258993 64.35312 
L 316.681099 64.35312 
L 316.681099 62.931014 
L 318.103205 62.931014 
L 318.103205 57.24259 
" style="fill:#206fb4;"/>
    <path clip-path="url(#p40af59ea81)" d="M 256.952649 68.619438 
L 258.374755 68.619438 
L 258.374755 74.307861 
L 259.796861 74.307861 
L 259.796861 72.885755 
L 262.641073 72.885755 
L 262.641073 75.729967 
L 256.952649 75.729967 
L 256.952649 78.574179 
L 258.374755 78.574179 
L 258.374755 81.418391 
L 259.796861 81.418391 
L 259.796861 79.996285 
L 264.063179 79.996285 
L 264.063179 77.152073 
L 266.90739 77.152073 
L 266.90739 78.574179 
L 268.329496 78.574179 
L 268.329496 81.418391 
L 265.485284 81.418391 
L 265.485284 82.840497 
L 264.063179 82.840497 
L 264.063179 84.262603 
L 268.329496 84.262603 
L 268.329496 82.840497 
L 269.751602 82.840497 
L 269.751602 79.996285 
L 274.01792 79.996285 
L 274.01792 77.152073 
L 275.440026 77.152073 
L 275.440026 78.574179 
L 276.862132 78.574179 
L 276.862132 74.307861 
L 279.706344 74.307861 
L 279.706344 68.619438 
L 281.12845 68.619438 
L 281.12845 70.041543 
L 282.550556 70.041543 
L 282.550556 77.152073 
L 285.394768 77.152073 
L 285.394768 81.418391 
L 283.972662 81.418391 
L 283.972662 82.840497 
L 285.394768 82.840497 
L 285.394768 88.528921 
L 286.816874 88.528921 
L 286.816874 87.106815 
L 289.661086 87.106815 
L 289.661086 89.951027 
L 282.550556 89.951027 
L 282.550556 87.106815 
L 276.862132 87.106815 
L 276.862132 84.262603 
L 275.440026 84.262603 
L 275.440026 87.106815 
L 274.01792 87.106815 
L 274.01792 88.528921 
L 272.595814 88.528921 
L 272.595814 85.684709 
L 266.90739 85.684709 
L 266.90739 87.106815 
L 268.329496 87.106815 
L 268.329496 91.373133 
L 269.751602 91.373133 
L 269.751602 98.483663 
L 266.90739 98.483663 
L 266.90739 97.061557 
L 265.485284 97.061557 
L 265.485284 92.795239 
L 264.063179 92.795239 
L 264.063179 89.951027 
L 262.641073 89.951027 
L 262.641073 88.528921 
L 261.218967 88.528921 
L 261.218967 84.262603 
L 258.374755 84.262603 
L 258.374755 89.951027 
L 259.796861 89.951027 
L 259.796861 94.217345 
L 254.108437 94.217345 
L 254.108437 81.418391 
L 246.997907 81.418391 
L 246.997907 79.996285 
L 249.842119 79.996285 
L 249.842119 77.152073 
L 254.108437 77.152073 
L 254.108437 75.729967 
L 255.530543 75.729967 
L 255.530543 70.041543 
L 256.952649 70.041543 
L 256.952649 68.619438 
" style="fill:#083776;"/>
    <path clip-path="url(#p40af59ea81)" d="M 202.912623 81.418391 
L 204.334729 81.418391 
L 204.334729 82.840497 
L 207.17894 82.840497 
L 207.17894 84.262603 
L 210.023152 84.262603 
L 210.023152 82.840497 
L 211.445258 82.840497 
L 211.445258 84.262603 
L 215.711576 84.262603 
L 215.711576 82.840497 
L 217.133682 82.840497 
L 217.133682 81.418391 
L 218.555788 81.418391 
L 218.555788 82.840497 
L 222.822106 82.840497 
L 222.822106 84.262603 
L 225.666318 84.262603 
L 225.666318 87.106815 
L 218.555788 87.106815 
L 218.555788 88.528921 
L 215.711576 88.528921 
L 215.711576 97.061557 
L 212.867364 97.061557 
L 212.867364 98.483663 
L 214.28947 98.483663 
L 214.28947 101.327874 
L 215.711576 101.327874 
L 215.711576 102.74998 
L 212.867364 102.74998 
L 212.867364 108.438404 
L 210.023152 108.438404 
L 210.023152 101.327874 
L 208.601046 101.327874 
L 208.601046 99.905768 
L 204.334729 99.905768 
L 204.334729 102.74998 
L 201.490517 102.74998 
L 201.490517 94.217345 
L 204.334729 94.217345 
L 204.334729 89.951027 
L 201.490517 89.951027 
L 201.490517 85.684709 
L 200.068411 85.684709 
L 200.068411 82.840497 
L 201.490517 82.840497 
L 201.490517 84.262603 
L 202.912623 84.262603 
L 202.912623 81.418391 
" style="fill:#08306b;"/>
    <path clip-path="url(#p40af59ea81)" d="M 218.555788 71.463649 
L 237.043165 71.463649 
L 237.043165 75.729967 
L 239.887377 75.729967 
L 239.887377 77.152073 
L 241.309483 77.152073 
L 241.309483 79.996285 
L 239.887377 79.996285 
L 239.887377 85.684709 
L 242.731589 85.684709 
L 242.731589 87.106815 
L 244.153695 87.106815 
L 244.153695 89.951027 
L 241.309483 89.951027 
L 241.309483 94.217345 
L 235.62106 94.217345 
L 235.62106 97.061557 
L 229.932636 97.061557 
L 229.932636 95.639451 
L 228.51053 95.639451 
L 228.51053 94.217345 
L 231.354742 94.217345 
L 231.354742 91.373133 
L 229.932636 91.373133 
L 229.932636 89.951027 
L 227.088424 89.951027 
L 227.088424 94.217345 
L 221.4 94.217345 
L 221.4 97.061557 
L 224.244212 97.061557 
L 224.244212 95.639451 
L 225.666318 95.639451 
L 225.666318 98.483663 
L 219.977894 98.483663 
L 219.977894 97.061557 
L 217.133682 97.061557 
L 217.133682 92.795239 
L 215.711576 92.795239 
L 215.711576 88.528921 
L 218.555788 88.528921 
L 218.555788 87.106815 
L 225.666318 87.106815 
L 225.666318 84.262603 
L 222.822106 84.262603 
L 222.822106 82.840497 
L 218.555788 82.840497 
L 218.555788 81.418391 
L 217.133682 81.418391 
L 217.133682 82.840497 
L 215.711576 82.840497 
L 215.711576 84.262603 
L 211.445258 84.262603 
L 211.445258 82.840497 
L 214.28947 82.840497 
L 214.28947 75.729967 
L 218.555788 75.729967 
L 218.555788 71.463649 
" style="fill:#084082;"/>
    <path clip-path="url(#p40af59ea81)" d="M 192.957881 79.996285 
L 214.28947 79.996285 
L 214.28947 82.840497 
L 210.023152 82.840497 
L 210.023152 84.262603 
L 207.17894 84.262603 
L 207.17894 82.840497 
L 204.334729 82.840497 
L 204.334729 81.418391 
L 202.912623 81.418391 
L 202.912623 84.262603 
L 201.490517 84.262603 
L 201.490517 82.840497 
L 200.068411 82.840497 
L 200.068411 85.684709 
L 201.490517 85.684709 
L 201.490517 89.951027 
L 204.334729 89.951027 
L 204.334729 94.217345 
L 201.490517 94.217345 
L 201.490517 101.327874 
L 197.224199 101.327874 
L 197.224199 102.74998 
L 195.802093 102.74998 
L 195.802093 104.172086 
L 192.957881 104.172086 
L 192.957881 101.327874 
L 195.802093 101.327874 
L 195.802093 91.373133 
L 194.379987 91.373133 
L 194.379987 89.951027 
L 192.957881 89.951027 
L 192.957881 92.795239 
L 191.535775 92.795239 
L 191.535775 94.217345 
L 194.379987 94.217345 
L 194.379987 97.061557 
L 192.957881 97.061557 
L 192.957881 99.905768 
L 191.535775 99.905768 
L 191.535775 98.483663 
L 190.113669 98.483663 
L 190.113669 97.061557 
L 188.691563 97.061557 
L 188.691563 95.639451 
L 187.269457 95.639451 
L 187.269457 94.217345 
L 183.003139 94.217345 
L 183.003139 92.795239 
L 184.425245 92.795239 
L 184.425245 84.262603 
L 192.957881 84.262603 
L 192.957881 79.996285 
" style="fill:#08488e;"/>
    <path clip-path="url(#p40af59ea81)" d="M 239.887377 71.463649 
L 245.575801 71.463649 
L 245.575801 75.729967 
L 242.731589 75.729967 
L 242.731589 79.996285 
L 246.997907 79.996285 
L 246.997907 81.418391 
L 254.108437 81.418391 
L 254.108437 94.217345 
L 259.796861 94.217345 
L 259.796861 89.951027 
L 258.374755 89.951027 
L 258.374755 84.262603 
L 261.218967 84.262603 
L 261.218967 88.528921 
L 262.641073 88.528921 
L 262.641073 89.951027 
L 264.063179 89.951027 
L 264.063179 92.795239 
L 265.485284 92.795239 
L 265.485284 97.061557 
L 266.90739 97.061557 
L 266.90739 99.905768 
L 269.751602 99.905768 
L 269.751602 102.74998 
L 271.173708 102.74998 
L 271.173708 101.327874 
L 272.595814 101.327874 
L 272.595814 107.016298 
L 271.173708 107.016298 
L 271.173708 108.438404 
L 268.329496 108.438404 
L 268.329496 102.74998 
L 265.485284 102.74998 
L 265.485284 101.327874 
L 264.063179 101.327874 
L 264.063179 99.905768 
L 261.218967 99.905768 
L 261.218967 102.74998 
L 264.063179 102.74998 
L 264.063179 107.016298 
L 261.218967 107.016298 
L 261.218967 108.438404 
L 262.641073 108.438404 
L 262.641073 114.126828 
L 259.796861 114.126828 
L 259.796861 112.704722 
L 258.374755 112.704722 
L 258.374755 109.86051 
L 248.420013 109.86051 
L 248.420013 99.905768 
L 249.842119 99.905768 
L 249.842119 98.483663 
L 251.264225 98.483663 
L 251.264225 95.639451 
L 245.575801 95.639451 
L 245.575801 99.905768 
L 244.153695 99.905768 
L 244.153695 102.74998 
L 242.731589 102.74998 
L 242.731589 97.061557 
L 241.309483 97.061557 
L 241.309483 95.639451 
L 237.043165 95.639451 
L 237.043165 97.061557 
L 235.62106 97.061557 
L 235.62106 94.217345 
L 241.309483 94.217345 
L 241.309483 89.951027 
L 244.153695 89.951027 
L 244.153695 87.106815 
L 242.731589 87.106815 
L 242.731589 85.684709 
L 239.887377 85.684709 
L 239.887377 79.996285 
L 241.309483 79.996285 
L 241.309483 77.152073 
L 239.887377 77.152073 
L 239.887377 71.463649 
" style="fill:#08306b;"/>
    <path clip-path="url(#p40af59ea81)" d="M 204.334729 99.905768 
L 208.601046 99.905768 
L 208.601046 101.327874 
L 210.023152 101.327874 
L 210.023152 108.438404 
L 212.867364 108.438404 
L 212.867364 104.172086 
L 214.28947 104.172086 
L 214.28947 105.594192 
L 215.711576 105.594192 
L 215.711576 107.016298 
L 217.133682 107.016298 
L 217.133682 104.172086 
L 224.244212 104.172086 
L 224.244212 102.74998 
L 225.666318 102.74998 
L 225.666318 105.594192 
L 228.51053 105.594192 
L 228.51053 104.172086 
L 229.932636 104.172086 
L 229.932636 101.327874 
L 232.776848 101.327874 
L 232.776848 108.438404 
L 234.198954 108.438404 
L 234.198954 111.282616 
L 229.932636 111.282616 
L 229.932636 112.704722 
L 227.088424 112.704722 
L 227.088424 114.126828 
L 222.822106 114.126828 
L 222.822106 112.704722 
L 219.977894 112.704722 
L 219.977894 116.97104 
L 215.711576 116.97104 
L 215.711576 114.126828 
L 214.28947 114.126828 
L 214.28947 112.704722 
L 212.867364 112.704722 
L 212.867364 111.282616 
L 211.445258 111.282616 
L 211.445258 112.704722 
L 208.601046 112.704722 
L 208.601046 115.548934 
L 205.756835 115.548934 
L 205.756835 114.126828 
L 202.912623 114.126828 
L 202.912623 115.548934 
L 200.068411 115.548934 
L 200.068411 112.704722 
L 198.646305 112.704722 
L 198.646305 111.282616 
L 197.224199 111.282616 
L 197.224199 105.594192 
L 198.646305 105.594192 
L 198.646305 101.327874 
L 201.490517 101.327874 
L 201.490517 102.74998 
L 204.334729 102.74998 
L 204.334729 99.905768 
" style="fill:#115ca5;"/>
    <path clip-path="url(#p40af59ea81)" d="M 309.570569 65.775226 
L 310.992675 65.775226 
L 310.992675 68.619438 
L 313.836887 68.619438 
L 313.836887 67.197332 
L 316.681099 67.197332 
L 316.681099 68.619438 
L 319.525311 68.619438 
L 319.525311 71.463649 
L 320.947417 71.463649 
L 320.947417 74.307861 
L 325.213734 74.307861 
L 325.213734 77.152073 
L 322.369523 77.152073 
L 322.369523 75.729967 
L 319.525311 75.729967 
L 319.525311 78.574179 
L 322.369523 78.574179 
L 322.369523 81.418391 
L 318.103205 81.418391 
L 318.103205 87.106815 
L 316.681099 87.106815 
L 316.681099 91.373133 
L 319.525311 91.373133 
L 319.525311 89.951027 
L 320.947417 89.951027 
L 320.947417 87.106815 
L 322.369523 87.106815 
L 322.369523 88.528921 
L 325.213734 88.528921 
L 325.213734 87.106815 
L 323.791629 87.106815 
L 323.791629 85.684709 
L 326.63584 85.684709 
L 326.63584 82.840497 
L 328.057946 82.840497 
L 328.057946 88.528921 
L 329.480052 88.528921 
L 329.480052 89.951027 
L 328.057946 89.951027 
L 328.057946 94.217345 
L 325.213734 94.217345 
L 325.213734 91.373133 
L 323.791629 91.373133 
L 323.791629 89.951027 
L 322.369523 89.951027 
L 322.369523 91.373133 
L 320.947417 91.373133 
L 320.947417 92.795239 
L 319.525311 92.795239 
L 319.525311 97.061557 
L 318.103205 97.061557 
L 318.103205 99.905768 
L 316.681099 99.905768 
L 316.681099 102.74998 
L 318.103205 102.74998 
L 318.103205 104.172086 
L 320.947417 104.172086 
L 320.947417 99.905768 
L 323.791629 99.905768 
L 323.791629 104.172086 
L 322.369523 104.172086 
L 322.369523 107.016298 
L 330.902158 107.016298 
L 330.902158 112.704722 
L 332.324264 112.704722 
L 332.324264 109.86051 
L 333.74637 109.86051 
L 333.74637 114.126828 
L 328.057946 114.126828 
L 328.057946 112.704722 
L 326.63584 112.704722 
L 326.63584 111.282616 
L 323.791629 111.282616 
L 323.791629 114.126828 
L 319.525311 114.126828 
L 319.525311 115.548934 
L 316.681099 115.548934 
L 316.681099 116.97104 
L 315.258993 116.97104 
L 315.258993 114.126828 
L 312.414781 114.126828 
L 312.414781 112.704722 
L 310.992675 112.704722 
L 310.992675 111.282616 
L 309.570569 111.282616 
L 309.570569 112.704722 
L 305.304251 112.704722 
L 305.304251 108.438404 
L 303.882145 108.438404 
L 303.882145 105.594192 
L 305.304251 105.594192 
L 305.304251 102.74998 
L 303.882145 102.74998 
L 303.882145 91.373133 
L 302.460039 91.373133 
L 302.460039 89.951027 
L 308.148463 89.951027 
L 308.148463 87.106815 
L 309.570569 87.106815 
L 309.570569 88.528921 
L 310.992675 88.528921 
L 310.992675 84.262603 
L 313.836887 84.262603 
L 313.836887 81.418391 
L 312.414781 81.418391 
L 312.414781 77.152073 
L 309.570569 77.152073 
L 309.570569 78.574179 
L 306.726357 78.574179 
L 306.726357 77.152073 
L 305.304251 77.152073 
L 305.304251 75.729967 
L 303.882145 75.729967 
L 303.882145 74.307861 
L 305.304251 74.307861 
L 305.304251 72.885755 
L 306.726357 72.885755 
L 306.726357 71.463649 
L 308.148463 71.463649 
L 308.148463 72.885755 
L 309.570569 72.885755 
L 309.570569 71.463649 
L 312.414781 71.463649 
L 312.414781 74.307861 
L 318.103205 74.307861 
L 318.103205 71.463649 
L 315.258993 71.463649 
L 315.258993 70.041543 
L 308.148463 70.041543 
L 308.148463 68.619438 
L 309.570569 68.619438 
L 309.570569 65.775226 
" style="fill:#1865ac;"/>
    <path clip-path="url(#p40af59ea81)" d="M 153.138914 97.061557 
L 170.204186 97.061557 
L 170.204186 98.483663 
L 167.359974 98.483663 
L 167.359974 99.905768 
L 171.626292 99.905768 
L 171.626292 104.172086 
L 173.048398 104.172086 
L 173.048398 105.594192 
L 174.470504 105.594192 
L 174.470504 107.016298 
L 177.314716 107.016298 
L 177.314716 105.594192 
L 178.736821 105.594192 
L 178.736821 107.016298 
L 180.158927 107.016298 
L 180.158927 111.282616 
L 181.581033 111.282616 
L 181.581033 112.704722 
L 177.314716 112.704722 
L 177.314716 111.282616 
L 175.89261 111.282616 
L 175.89261 109.86051 
L 174.470504 109.86051 
L 174.470504 114.126828 
L 168.78208 114.126828 
L 168.78208 112.704722 
L 160.249444 112.704722 
L 160.249444 114.126828 
L 158.827338 114.126828 
L 158.827338 116.97104 
L 155.983126 116.97104 
L 155.983126 118.393146 
L 154.56102 118.393146 
L 154.56102 108.438404 
L 153.138914 108.438404 
L 153.138914 109.86051 
L 148.872596 109.86051 
L 148.872596 112.704722 
L 151.716808 112.704722 
L 151.716808 116.97104 
L 147.450491 116.97104 
L 147.450491 114.126828 
L 146.028385 114.126828 
L 146.028385 109.86051 
L 147.450491 109.86051 
L 147.450491 105.594192 
L 150.294702 105.594192 
L 150.294702 102.74998 
L 153.138914 102.74998 
L 153.138914 97.061557 
" style="fill:#3282be;"/>
    <path clip-path="url(#p40af59ea81)" d="M 227.088424 89.951027 
L 229.932636 89.951027 
L 229.932636 91.373133 
L 231.354742 91.373133 
L 231.354742 94.217345 
L 228.51053 94.217345 
L 228.51053 95.639451 
L 229.932636 95.639451 
L 229.932636 97.061557 
L 237.043165 97.061557 
L 237.043165 98.483663 
L 238.465271 98.483663 
L 238.465271 102.74998 
L 239.887377 102.74998 
L 239.887377 107.016298 
L 241.309483 107.016298 
L 241.309483 114.126828 
L 239.887377 114.126828 
L 239.887377 115.548934 
L 245.575801 115.548934 
L 245.575801 118.393146 
L 244.153695 118.393146 
L 244.153695 121.237358 
L 245.575801 121.237358 
L 245.575801 125.503676 
L 239.887377 125.503676 
L 239.887377 116.97104 
L 234.198954 116.97104 
L 234.198954 108.438404 
L 232.776848 108.438404 
L 232.776848 101.327874 
L 229.932636 101.327874 
L 229.932636 104.172086 
L 228.51053 104.172086 
L 228.51053 105.594192 
L 225.666318 105.594192 
L 225.666318 102.74998 
L 224.244212 102.74998 
L 224.244212 104.172086 
L 217.133682 104.172086 
L 217.133682 107.016298 
L 215.711576 107.016298 
L 215.711576 105.594192 
L 214.28947 105.594192 
L 214.28947 104.172086 
L 212.867364 104.172086 
L 212.867364 102.74998 
L 215.711576 102.74998 
L 215.711576 101.327874 
L 214.28947 101.327874 
L 214.28947 98.483663 
L 212.867364 98.483663 
L 212.867364 97.061557 
L 215.711576 97.061557 
L 215.711576 92.795239 
L 217.133682 92.795239 
L 217.133682 97.061557 
L 219.977894 97.061557 
L 219.977894 98.483663 
L 225.666318 98.483663 
L 225.666318 95.639451 
L 224.244212 95.639451 
L 224.244212 97.061557 
L 221.4 97.061557 
L 221.4 94.217345 
L 227.088424 94.217345 
L 227.088424 89.951027 
" style="fill:#083e81;"/>
    <path clip-path="url(#p40af59ea81)" d="M 178.736821 95.639451 
L 183.003139 95.639451 
L 183.003139 102.74998 
L 184.425245 102.74998 
L 184.425245 104.172086 
L 185.847351 104.172086 
L 185.847351 105.594192 
L 187.269457 105.594192 
L 187.269457 107.016298 
L 188.691563 107.016298 
L 188.691563 108.438404 
L 191.535775 108.438404 
L 191.535775 109.86051 
L 187.269457 109.86051 
L 187.269457 112.704722 
L 190.113669 112.704722 
L 190.113669 111.282616 
L 194.379987 111.282616 
L 194.379987 125.503676 
L 191.535775 125.503676 
L 191.535775 124.08157 
L 190.113669 124.08157 
L 190.113669 118.393146 
L 188.691563 118.393146 
L 188.691563 116.97104 
L 191.535775 116.97104 
L 191.535775 114.126828 
L 188.691563 114.126828 
L 188.691563 115.548934 
L 187.269457 115.548934 
L 187.269457 116.97104 
L 180.158927 116.97104 
L 180.158927 121.237358 
L 184.425245 121.237358 
L 184.425245 119.815252 
L 187.269457 119.815252 
L 187.269457 122.659464 
L 183.003139 122.659464 
L 183.003139 124.08157 
L 181.581033 124.08157 
L 181.581033 125.503676 
L 178.736821 125.503676 
L 178.736821 122.659464 
L 177.314716 122.659464 
L 177.314716 121.237358 
L 175.89261 121.237358 
L 175.89261 118.393146 
L 177.314716 118.393146 
L 177.314716 115.548934 
L 178.736821 115.548934 
L 178.736821 114.126828 
L 181.581033 114.126828 
L 181.581033 111.282616 
L 180.158927 111.282616 
L 180.158927 107.016298 
L 178.736821 107.016298 
L 178.736821 105.594192 
L 177.314716 105.594192 
L 177.314716 107.016298 
L 174.470504 107.016298 
L 174.470504 105.594192 
L 173.048398 105.594192 
L 173.048398 104.172086 
L 171.626292 104.172086 
L 171.626292 99.905768 
L 167.359974 99.905768 
L 167.359974 98.483663 
L 170.204186 98.483663 
L 170.204186 97.061557 
L 171.626292 97.061557 
L 171.626292 98.483663 
L 177.314716 98.483663 
L 177.314716 97.061557 
L 178.736821 97.061557 
L 178.736821 95.639451 
" style="fill:#4695c8;"/>
    <path clip-path="url(#p40af59ea81)" d="M 237.043165 95.639451 
L 241.309483 95.639451 
L 241.309483 97.061557 
L 242.731589 97.061557 
L 242.731589 102.74998 
L 244.153695 102.74998 
L 244.153695 99.905768 
L 245.575801 99.905768 
L 245.575801 95.639451 
L 251.264225 95.639451 
L 251.264225 98.483663 
L 249.842119 98.483663 
L 249.842119 99.905768 
L 248.420013 99.905768 
L 248.420013 109.86051 
L 249.842119 109.86051 
L 249.842119 114.126828 
L 251.264225 114.126828 
L 251.264225 115.548934 
L 254.108437 115.548934 
L 254.108437 121.237358 
L 255.530543 121.237358 
L 255.530543 124.08157 
L 254.108437 124.08157 
L 254.108437 125.503676 
L 252.686331 125.503676 
L 252.686331 126.925782 
L 245.575801 126.925782 
L 245.575801 121.237358 
L 244.153695 121.237358 
L 244.153695 118.393146 
L 245.575801 118.393146 
L 245.575801 115.548934 
L 239.887377 115.548934 
L 239.887377 114.126828 
L 241.309483 114.126828 
L 241.309483 107.016298 
L 239.887377 107.016298 
L 239.887377 102.74998 
L 238.465271 102.74998 
L 238.465271 98.483663 
L 237.043165 98.483663 
L 237.043165 95.639451 
" style="fill:#083370;"/>
    <path clip-path="url(#p40af59ea81)" d="M 123.274689 97.061557 
L 128.963113 97.061557 
L 128.963113 101.327874 
L 143.184173 101.327874 
L 143.184173 102.74998 
L 144.606279 102.74998 
L 144.606279 105.594192 
L 143.184173 105.594192 
L 143.184173 107.016298 
L 140.339961 107.016298 
L 140.339961 111.282616 
L 137.495749 111.282616 
L 137.495749 105.594192 
L 133.229431 105.594192 
L 133.229431 112.704722 
L 134.651537 112.704722 
L 134.651537 115.548934 
L 130.385219 115.548934 
L 130.385219 118.393146 
L 131.807325 118.393146 
L 131.807325 119.815252 
L 123.274689 119.815252 
L 123.274689 115.548934 
L 124.696795 115.548934 
L 124.696795 112.704722 
L 121.852583 112.704722 
L 121.852583 116.97104 
L 119.008371 116.97104 
L 119.008371 122.659464 
L 116.16416 122.659464 
L 116.16416 121.237358 
L 110.475736 121.237358 
L 110.475736 124.08157 
L 114.742054 124.08157 
L 114.742054 125.503676 
L 113.319948 125.503676 
L 113.319948 128.347888 
L 106.209418 128.347888 
L 106.209418 122.659464 
L 104.787312 122.659464 
L 104.787312 119.815252 
L 106.209418 119.815252 
L 106.209418 118.393146 
L 109.05363 118.393146 
L 109.05363 116.97104 
L 110.475736 116.97104 
L 110.475736 115.548934 
L 104.787312 115.548934 
L 104.787312 114.126828 
L 110.475736 114.126828 
L 110.475736 105.594192 
L 123.274689 105.594192 
L 123.274689 97.061557 
" style="fill:#82bbdb;"/>
    <path clip-path="url(#p40af59ea81)" d="M 192.957881 89.951027 
L 194.379987 89.951027 
L 194.379987 91.373133 
L 195.802093 91.373133 
L 195.802093 101.327874 
L 192.957881 101.327874 
L 192.957881 104.172086 
L 195.802093 104.172086 
L 195.802093 102.74998 
L 197.224199 102.74998 
L 197.224199 101.327874 
L 198.646305 101.327874 
L 198.646305 105.594192 
L 197.224199 105.594192 
L 197.224199 111.282616 
L 198.646305 111.282616 
L 198.646305 112.704722 
L 200.068411 112.704722 
L 200.068411 115.548934 
L 202.912623 115.548934 
L 202.912623 114.126828 
L 205.756835 114.126828 
L 205.756835 116.97104 
L 207.17894 116.97104 
L 207.17894 121.237358 
L 204.334729 121.237358 
L 204.334729 119.815252 
L 202.912623 119.815252 
L 202.912623 118.393146 
L 197.224199 118.393146 
L 197.224199 119.815252 
L 195.802093 119.815252 
L 195.802093 121.237358 
L 198.646305 121.237358 
L 198.646305 125.503676 
L 197.224199 125.503676 
L 197.224199 128.347888 
L 195.802093 128.347888 
L 195.802093 126.925782 
L 192.957881 126.925782 
L 192.957881 125.503676 
L 194.379987 125.503676 
L 194.379987 111.282616 
L 190.113669 111.282616 
L 190.113669 112.704722 
L 187.269457 112.704722 
L 187.269457 109.86051 
L 191.535775 109.86051 
L 191.535775 108.438404 
L 188.691563 108.438404 
L 188.691563 107.016298 
L 187.269457 107.016298 
L 187.269457 105.594192 
L 185.847351 105.594192 
L 185.847351 104.172086 
L 184.425245 104.172086 
L 184.425245 102.74998 
L 183.003139 102.74998 
L 183.003139 95.639451 
L 178.736821 95.639451 
L 178.736821 97.061557 
L 177.314716 97.061557 
L 177.314716 98.483663 
L 171.626292 98.483663 
L 171.626292 97.061557 
L 170.204186 97.061557 
L 170.204186 92.795239 
L 183.003139 92.795239 
L 183.003139 94.217345 
L 187.269457 94.217345 
L 187.269457 95.639451 
L 188.691563 95.639451 
L 188.691563 97.061557 
L 190.113669 97.061557 
L 190.113669 98.483663 
L 191.535775 98.483663 
L 191.535775 99.905768 
L 192.957881 99.905768 
L 192.957881 97.061557 
L 194.379987 97.061557 
L 194.379987 94.217345 
L 191.535775 94.217345 
L 191.535775 92.795239 
L 192.957881 92.795239 
L 192.957881 89.951027 
" style="fill:#3686c0;"/>
    <path clip-path="url(#p40af59ea81)" d="M 143.184173 101.327874 
L 153.138914 101.327874 
L 153.138914 102.74998 
L 150.294702 102.74998 
L 150.294702 105.594192 
L 147.450491 105.594192 
L 147.450491 109.86051 
L 146.028385 109.86051 
L 146.028385 114.126828 
L 147.450491 114.126828 
L 147.450491 116.97104 
L 151.716808 116.97104 
L 151.716808 112.704722 
L 148.872596 112.704722 
L 148.872596 109.86051 
L 153.138914 109.86051 
L 153.138914 108.438404 
L 154.56102 108.438404 
L 154.56102 118.393146 
L 155.983126 118.393146 
L 155.983126 116.97104 
L 158.827338 116.97104 
L 158.827338 114.126828 
L 160.249444 114.126828 
L 160.249444 118.393146 
L 157.405232 118.393146 
L 157.405232 121.237358 
L 153.138914 121.237358 
L 153.138914 119.815252 
L 148.872596 119.815252 
L 148.872596 122.659464 
L 147.450491 122.659464 
L 147.450491 124.08157 
L 146.028385 124.08157 
L 146.028385 126.925782 
L 141.762067 126.925782 
L 141.762067 124.08157 
L 144.606279 124.08157 
L 144.606279 121.237358 
L 141.762067 121.237358 
L 141.762067 122.659464 
L 138.917855 122.659464 
L 138.917855 125.503676 
L 137.495749 125.503676 
L 137.495749 126.925782 
L 133.229431 126.925782 
L 133.229431 129.769993 
L 131.807325 129.769993 
L 131.807325 132.614205 
L 126.118901 132.614205 
L 126.118901 134.036311 
L 121.852583 134.036311 
L 121.852583 131.192099 
L 127.541007 131.192099 
L 127.541007 126.925782 
L 124.696795 126.925782 
L 124.696795 125.503676 
L 127.541007 125.503676 
L 127.541007 122.659464 
L 128.963113 122.659464 
L 128.963113 121.237358 
L 131.807325 121.237358 
L 131.807325 118.393146 
L 130.385219 118.393146 
L 130.385219 115.548934 
L 134.651537 115.548934 
L 134.651537 112.704722 
L 133.229431 112.704722 
L 133.229431 105.594192 
L 137.495749 105.594192 
L 137.495749 111.282616 
L 140.339961 111.282616 
L 140.339961 107.016298 
L 143.184173 107.016298 
L 143.184173 105.594192 
L 144.606279 105.594192 
L 144.606279 102.74998 
L 143.184173 102.74998 
L 143.184173 101.327874 
" style="fill:#f7fbff;"/>
    <path clip-path="url(#p40af59ea81)" d="M 121.852583 112.704722 
L 124.696795 112.704722 
L 124.696795 115.548934 
L 123.274689 115.548934 
L 123.274689 119.815252 
L 131.807325 119.815252 
L 131.807325 121.237358 
L 128.963113 121.237358 
L 128.963113 122.659464 
L 127.541007 122.659464 
L 127.541007 125.503676 
L 124.696795 125.503676 
L 124.696795 126.925782 
L 127.541007 126.925782 
L 127.541007 131.192099 
L 121.852583 131.192099 
L 121.852583 134.036311 
L 126.118901 134.036311 
L 126.118901 132.614205 
L 131.807325 132.614205 
L 131.807325 129.769993 
L 133.229431 129.769993 
L 133.229431 126.925782 
L 137.495749 126.925782 
L 137.495749 125.503676 
L 138.917855 125.503676 
L 138.917855 122.659464 
L 141.762067 122.659464 
L 141.762067 121.237358 
L 144.606279 121.237358 
L 144.606279 124.08157 
L 141.762067 124.08157 
L 141.762067 125.503676 
L 140.339961 125.503676 
L 140.339961 128.347888 
L 147.450491 128.347888 
L 147.450491 131.192099 
L 143.184173 131.192099 
L 143.184173 134.036311 
L 141.762067 134.036311 
L 141.762067 138.302629 
L 136.073643 138.302629 
L 136.073643 136.880523 
L 138.917855 136.880523 
L 138.917855 132.614205 
L 136.073643 132.614205 
L 136.073643 135.458417 
L 134.651537 135.458417 
L 134.651537 136.880523 
L 127.541007 136.880523 
L 127.541007 138.302629 
L 119.008371 138.302629 
L 119.008371 134.036311 
L 114.742054 134.036311 
L 114.742054 128.347888 
L 113.319948 128.347888 
L 113.319948 125.503676 
L 114.742054 125.503676 
L 114.742054 124.08157 
L 110.475736 124.08157 
L 110.475736 121.237358 
L 116.16416 121.237358 
L 116.16416 122.659464 
L 119.008371 122.659464 
L 119.008371 116.97104 
L 121.852583 116.97104 
L 121.852583 112.704722 
" style="fill:#68acd5;"/>
    <path clip-path="url(#p40af59ea81)" d="M 211.445258 111.282616 
L 212.867364 111.282616 
L 212.867364 112.704722 
L 214.28947 112.704722 
L 214.28947 114.126828 
L 215.711576 114.126828 
L 215.711576 115.548934 
L 214.28947 115.548934 
L 214.28947 122.659464 
L 217.133682 122.659464 
L 217.133682 125.503676 
L 215.711576 125.503676 
L 215.711576 128.347888 
L 214.28947 128.347888 
L 214.28947 131.192099 
L 215.711576 131.192099 
L 215.711576 135.458417 
L 214.28947 135.458417 
L 214.28947 138.302629 
L 211.445258 138.302629 
L 211.445258 136.880523 
L 210.023152 136.880523 
L 210.023152 134.036311 
L 212.867364 134.036311 
L 212.867364 131.192099 
L 210.023152 131.192099 
L 210.023152 129.769993 
L 207.17894 129.769993 
L 207.17894 136.880523 
L 208.601046 136.880523 
L 208.601046 145.413159 
L 207.17894 145.413159 
L 207.17894 143.991053 
L 205.756835 143.991053 
L 205.756835 136.880523 
L 201.490517 136.880523 
L 201.490517 134.036311 
L 204.334729 134.036311 
L 204.334729 131.192099 
L 202.912623 131.192099 
L 202.912623 128.347888 
L 204.334729 128.347888 
L 204.334729 125.503676 
L 207.17894 125.503676 
L 207.17894 116.97104 
L 205.756835 116.97104 
L 205.756835 115.548934 
L 208.601046 115.548934 
L 208.601046 112.704722 
L 211.445258 112.704722 
L 211.445258 111.282616 
" style="fill:#6caed6;"/>
    <path clip-path="url(#p40af59ea81)" d="M 174.470504 109.86051 
L 175.89261 109.86051 
L 175.89261 111.282616 
L 177.314716 111.282616 
L 177.314716 112.704722 
L 181.581033 112.704722 
L 181.581033 114.126828 
L 178.736821 114.126828 
L 178.736821 115.548934 
L 177.314716 115.548934 
L 177.314716 118.393146 
L 175.89261 118.393146 
L 175.89261 121.237358 
L 177.314716 121.237358 
L 177.314716 129.769993 
L 178.736821 129.769993 
L 178.736821 134.036311 
L 180.158927 134.036311 
L 180.158927 132.614205 
L 185.847351 132.614205 
L 185.847351 138.302629 
L 183.003139 138.302629 
L 183.003139 135.458417 
L 180.158927 135.458417 
L 180.158927 138.302629 
L 177.314716 138.302629 
L 177.314716 141.146841 
L 181.581033 141.146841 
L 181.581033 145.413159 
L 180.158927 145.413159 
L 180.158927 142.568947 
L 177.314716 142.568947 
L 177.314716 143.991053 
L 175.89261 143.991053 
L 175.89261 139.724735 
L 174.470504 139.724735 
L 174.470504 138.302629 
L 175.89261 138.302629 
L 175.89261 135.458417 
L 174.470504 135.458417 
L 174.470504 136.880523 
L 170.204186 136.880523 
L 170.204186 131.192099 
L 167.359974 131.192099 
L 167.359974 129.769993 
L 170.204186 129.769993 
L 170.204186 125.503676 
L 165.937868 125.503676 
L 165.937868 122.659464 
L 167.359974 122.659464 
L 167.359974 119.815252 
L 165.937868 119.815252 
L 165.937868 121.237358 
L 164.515762 121.237358 
L 164.515762 122.659464 
L 163.093656 122.659464 
L 163.093656 124.08157 
L 161.67155 124.08157 
L 161.67155 128.347888 
L 157.405232 128.347888 
L 157.405232 131.192099 
L 155.983126 131.192099 
L 155.983126 128.347888 
L 153.138914 128.347888 
L 153.138914 132.614205 
L 148.872596 132.614205 
L 148.872596 129.769993 
L 147.450491 129.769993 
L 147.450491 128.347888 
L 140.339961 128.347888 
L 140.339961 125.503676 
L 141.762067 125.503676 
L 141.762067 126.925782 
L 146.028385 126.925782 
L 146.028385 124.08157 
L 147.450491 124.08157 
L 147.450491 122.659464 
L 148.872596 122.659464 
L 148.872596 119.815252 
L 153.138914 119.815252 
L 153.138914 121.237358 
L 157.405232 121.237358 
L 157.405232 118.393146 
L 160.249444 118.393146 
L 160.249444 112.704722 
L 168.78208 112.704722 
L 168.78208 114.126828 
L 174.470504 114.126828 
L 174.470504 109.86051 
" style="fill:#7fb9da;"/>
    <path clip-path="url(#p40af59ea81)" d="M 229.932636 111.282616 
L 234.198954 111.282616 
L 234.198954 114.126828 
L 232.776848 114.126828 
L 232.776848 115.548934 
L 231.354742 115.548934 
L 231.354742 114.126828 
L 228.51053 114.126828 
L 228.51053 116.97104 
L 225.666318 116.97104 
L 225.666318 121.237358 
L 229.932636 121.237358 
L 229.932636 119.815252 
L 232.776848 119.815252 
L 232.776848 121.237358 
L 231.354742 121.237358 
L 231.354742 124.08157 
L 229.932636 124.08157 
L 229.932636 128.347888 
L 232.776848 128.347888 
L 232.776848 131.192099 
L 227.088424 131.192099 
L 227.088424 132.614205 
L 224.244212 132.614205 
L 224.244212 128.347888 
L 219.977894 128.347888 
L 219.977894 129.769993 
L 217.133682 129.769993 
L 217.133682 131.192099 
L 221.4 131.192099 
L 221.4 134.036311 
L 222.822106 134.036311 
L 222.822106 136.880523 
L 225.666318 136.880523 
L 225.666318 135.458417 
L 227.088424 135.458417 
L 227.088424 136.880523 
L 228.51053 136.880523 
L 228.51053 138.302629 
L 227.088424 138.302629 
L 227.088424 139.724735 
L 225.666318 139.724735 
L 225.666318 141.146841 
L 224.244212 141.146841 
L 224.244212 138.302629 
L 221.4 138.302629 
L 221.4 136.880523 
L 219.977894 136.880523 
L 219.977894 138.302629 
L 218.555788 138.302629 
L 218.555788 139.724735 
L 217.133682 139.724735 
L 217.133682 142.568947 
L 219.977894 142.568947 
L 219.977894 143.991053 
L 221.4 143.991053 
L 221.4 145.413159 
L 219.977894 145.413159 
L 219.977894 148.257371 
L 225.666318 148.257371 
L 225.666318 149.679477 
L 212.867364 149.679477 
L 212.867364 151.101583 
L 210.023152 151.101583 
L 210.023152 148.257371 
L 208.601046 148.257371 
L 208.601046 146.835265 
L 207.17894 146.835265 
L 207.17894 145.413159 
L 208.601046 145.413159 
L 208.601046 136.880523 
L 207.17894 136.880523 
L 207.17894 129.769993 
L 210.023152 129.769993 
L 210.023152 131.192099 
L 212.867364 131.192099 
L 212.867364 134.036311 
L 210.023152 134.036311 
L 210.023152 136.880523 
L 211.445258 136.880523 
L 211.445258 138.302629 
L 214.28947 138.302629 
L 214.28947 135.458417 
L 215.711576 135.458417 
L 215.711576 131.192099 
L 214.28947 131.192099 
L 214.28947 128.347888 
L 215.711576 128.347888 
L 215.711576 125.503676 
L 217.133682 125.503676 
L 217.133682 122.659464 
L 214.28947 122.659464 
L 214.28947 115.548934 
L 215.711576 115.548934 
L 215.711576 116.97104 
L 219.977894 116.97104 
L 219.977894 112.704722 
L 222.822106 112.704722 
L 222.822106 114.126828 
L 227.088424 114.126828 
L 227.088424 112.704722 
L 229.932636 112.704722 
L 229.932636 111.282616 
" style="fill:#92c4de;"/>
    <path clip-path="url(#p40af59ea81)" d="M 188.691563 114.126828 
L 191.535775 114.126828 
L 191.535775 116.97104 
L 188.691563 116.97104 
L 188.691563 118.393146 
L 190.113669 118.393146 
L 190.113669 124.08157 
L 191.535775 124.08157 
L 191.535775 125.503676 
L 192.957881 125.503676 
L 192.957881 126.925782 
L 195.802093 126.925782 
L 195.802093 128.347888 
L 197.224199 128.347888 
L 197.224199 125.503676 
L 198.646305 125.503676 
L 198.646305 121.237358 
L 195.802093 121.237358 
L 195.802093 119.815252 
L 197.224199 119.815252 
L 197.224199 118.393146 
L 202.912623 118.393146 
L 202.912623 119.815252 
L 204.334729 119.815252 
L 204.334729 121.237358 
L 207.17894 121.237358 
L 207.17894 125.503676 
L 204.334729 125.503676 
L 204.334729 128.347888 
L 202.912623 128.347888 
L 202.912623 131.192099 
L 204.334729 131.192099 
L 204.334729 134.036311 
L 201.490517 134.036311 
L 201.490517 136.880523 
L 205.756835 136.880523 
L 205.756835 143.991053 
L 207.17894 143.991053 
L 207.17894 145.413159 
L 205.756835 145.413159 
L 205.756835 149.679477 
L 204.334729 149.679477 
L 204.334729 152.523689 
L 201.490517 152.523689 
L 201.490517 153.945795 
L 200.068411 153.945795 
L 200.068411 148.257371 
L 201.490517 148.257371 
L 201.490517 146.835265 
L 200.068411 146.835265 
L 200.068411 143.991053 
L 201.490517 143.991053 
L 201.490517 141.146841 
L 200.068411 141.146841 
L 200.068411 139.724735 
L 198.646305 139.724735 
L 198.646305 131.192099 
L 197.224199 131.192099 
L 197.224199 129.769993 
L 194.379987 129.769993 
L 194.379987 132.614205 
L 192.957881 132.614205 
L 192.957881 134.036311 
L 191.535775 134.036311 
L 191.535775 136.880523 
L 190.113669 136.880523 
L 190.113669 138.302629 
L 185.847351 138.302629 
L 185.847351 132.614205 
L 180.158927 132.614205 
L 180.158927 134.036311 
L 178.736821 134.036311 
L 178.736821 129.769993 
L 177.314716 129.769993 
L 177.314716 122.659464 
L 178.736821 122.659464 
L 178.736821 125.503676 
L 181.581033 125.503676 
L 181.581033 124.08157 
L 183.003139 124.08157 
L 183.003139 122.659464 
L 187.269457 122.659464 
L 187.269457 119.815252 
L 184.425245 119.815252 
L 184.425245 121.237358 
L 180.158927 121.237358 
L 180.158927 116.97104 
L 187.269457 116.97104 
L 187.269457 115.548934 
L 188.691563 115.548934 
L 188.691563 114.126828 
" style="fill:#aed1e7;"/>
    <path clip-path="url(#p40af59ea81)" d="M 194.379987 129.769993 
L 197.224199 129.769993 
L 197.224199 131.192099 
L 198.646305 131.192099 
L 198.646305 139.724735 
L 200.068411 139.724735 
L 200.068411 141.146841 
L 201.490517 141.146841 
L 201.490517 143.991053 
L 200.068411 143.991053 
L 200.068411 146.835265 
L 201.490517 146.835265 
L 201.490517 148.257371 
L 200.068411 148.257371 
L 200.068411 153.945795 
L 201.490517 153.945795 
L 201.490517 152.523689 
L 204.334729 152.523689 
L 204.334729 156.790007 
L 198.646305 156.790007 
L 198.646305 151.101583 
L 197.224199 151.101583 
L 197.224199 149.679477 
L 198.646305 149.679477 
L 198.646305 145.413159 
L 195.802093 145.413159 
L 195.802093 146.835265 
L 191.535775 146.835265 
L 191.535775 145.413159 
L 190.113669 145.413159 
L 190.113669 141.146841 
L 188.691563 141.146841 
L 188.691563 142.568947 
L 184.425245 142.568947 
L 184.425245 141.146841 
L 183.003139 141.146841 
L 183.003139 139.724735 
L 181.581033 139.724735 
L 181.581033 141.146841 
L 177.314716 141.146841 
L 177.314716 138.302629 
L 180.158927 138.302629 
L 180.158927 135.458417 
L 183.003139 135.458417 
L 183.003139 138.302629 
L 190.113669 138.302629 
L 190.113669 136.880523 
L 191.535775 136.880523 
L 191.535775 134.036311 
L 192.957881 134.036311 
L 192.957881 132.614205 
L 194.379987 132.614205 
L 194.379987 129.769993 
" style="fill:#cfe1f2;"/>
    <path clip-path="url(#p40af59ea81)" d="M 274.01792 192.342655 
L 276.862132 192.342655 
L 276.862132 195.186867 
L 279.706344 195.186867 
L 279.706344 199.453185 
L 281.12845 199.453185 
L 281.12845 203.719503 
L 282.550556 203.719503 
L 282.550556 200.875291 
L 283.972662 200.875291 
L 283.972662 202.297397 
L 288.23898 202.297397 
L 288.23898 205.141609 
L 289.661086 205.141609 
L 289.661086 209.407927 
L 288.23898 209.407927 
L 288.23898 207.985821 
L 286.816874 207.985821 
L 286.816874 203.719503 
L 285.394768 203.719503 
L 285.394768 206.563715 
L 283.972662 206.563715 
L 283.972662 207.985821 
L 281.12845 207.985821 
L 281.12845 212.252139 
L 279.706344 212.252139 
L 279.706344 213.674245 
L 281.12845 213.674245 
L 281.12845 215.096351 
L 278.284238 215.096351 
L 278.284238 217.940562 
L 275.440026 217.940562 
L 275.440026 215.096351 
L 274.01792 215.096351 
L 274.01792 216.518457 
L 272.595814 216.518457 
L 272.595814 217.940562 
L 269.751602 217.940562 
L 269.751602 215.096351 
L 272.595814 215.096351 
L 272.595814 210.830033 
L 269.751602 210.830033 
L 269.751602 199.453185 
L 271.173708 199.453185 
L 271.173708 200.875291 
L 272.595814 200.875291 
L 272.595814 196.608973 
L 274.01792 196.608973 
L 274.01792 192.342655 
" style="fill:#4695c8;"/>
    <path clip-path="url(#p40af59ea81)" d="M 285.394768 199.453185 
L 291.083192 199.453185 
L 291.083192 200.875291 
L 295.349509 200.875291 
L 295.349509 206.563715 
L 292.505298 206.563715 
L 292.505298 213.674245 
L 286.816874 213.674245 
L 286.816874 215.096351 
L 282.550556 215.096351 
L 282.550556 217.940562 
L 279.706344 217.940562 
L 279.706344 220.784774 
L 285.394768 220.784774 
L 285.394768 219.362668 
L 286.816874 219.362668 
L 286.816874 217.940562 
L 288.23898 217.940562 
L 288.23898 219.362668 
L 289.661086 219.362668 
L 289.661086 225.051092 
L 288.23898 225.051092 
L 288.23898 226.473198 
L 283.972662 226.473198 
L 283.972662 225.051092 
L 281.12845 225.051092 
L 281.12845 223.628986 
L 278.284238 223.628986 
L 278.284238 222.20688 
L 275.440026 222.20688 
L 275.440026 220.784774 
L 272.595814 220.784774 
L 272.595814 216.518457 
L 274.01792 216.518457 
L 274.01792 215.096351 
L 275.440026 215.096351 
L 275.440026 217.940562 
L 278.284238 217.940562 
L 278.284238 215.096351 
L 281.12845 215.096351 
L 281.12845 213.674245 
L 279.706344 213.674245 
L 279.706344 212.252139 
L 281.12845 212.252139 
L 281.12845 207.985821 
L 283.972662 207.985821 
L 283.972662 206.563715 
L 285.394768 206.563715 
L 285.394768 203.719503 
L 286.816874 203.719503 
L 286.816874 207.985821 
L 288.23898 207.985821 
L 288.23898 209.407927 
L 289.661086 209.407927 
L 289.661086 205.141609 
L 288.23898 205.141609 
L 288.23898 200.875291 
L 285.394768 200.875291 
L 285.394768 199.453185 
" style="fill:#9cc9e1;"/>
    <path clip-path="url(#p40af59ea81)" d="M 272.595814 182.387914 
L 278.284238 182.387914 
L 278.284238 183.81002 
L 279.706344 183.81002 
L 279.706344 195.186867 
L 276.862132 195.186867 
L 276.862132 192.342655 
L 274.01792 192.342655 
L 274.01792 196.608973 
L 272.595814 196.608973 
L 272.595814 200.875291 
L 271.173708 200.875291 
L 271.173708 199.453185 
L 269.751602 199.453185 
L 269.751602 210.830033 
L 272.595814 210.830033 
L 272.595814 215.096351 
L 269.751602 215.096351 
L 269.751602 217.940562 
L 272.595814 217.940562 
L 272.595814 220.784774 
L 268.329496 220.784774 
L 268.329496 217.940562 
L 266.90739 217.940562 
L 266.90739 216.518457 
L 264.063179 216.518457 
L 264.063179 219.362668 
L 262.641073 219.362668 
L 262.641073 217.940562 
L 258.374755 217.940562 
L 258.374755 223.628986 
L 254.108437 223.628986 
L 254.108437 222.20688 
L 249.842119 222.20688 
L 249.842119 223.628986 
L 246.997907 223.628986 
L 246.997907 219.362668 
L 248.420013 219.362668 
L 248.420013 220.784774 
L 251.264225 220.784774 
L 251.264225 215.096351 
L 248.420013 215.096351 
L 248.420013 216.518457 
L 242.731589 216.518457 
L 242.731589 215.096351 
L 241.309483 215.096351 
L 241.309483 212.252139 
L 248.420013 212.252139 
L 248.420013 213.674245 
L 251.264225 213.674245 
L 251.264225 212.252139 
L 252.686331 212.252139 
L 252.686331 210.830033 
L 254.108437 210.830033 
L 254.108437 209.407927 
L 256.952649 209.407927 
L 256.952649 210.830033 
L 255.530543 210.830033 
L 255.530543 215.096351 
L 256.952649 215.096351 
L 256.952649 213.674245 
L 258.374755 213.674245 
L 258.374755 212.252139 
L 259.796861 212.252139 
L 259.796861 210.830033 
L 261.218967 210.830033 
L 261.218967 213.674245 
L 262.641073 213.674245 
L 262.641073 212.252139 
L 265.485284 212.252139 
L 265.485284 215.096351 
L 268.329496 215.096351 
L 268.329496 210.830033 
L 265.485284 210.830033 
L 265.485284 206.563715 
L 264.063179 206.563715 
L 264.063179 203.719503 
L 265.485284 203.719503 
L 265.485284 198.031079 
L 268.329496 198.031079 
L 268.329496 195.186867 
L 269.751602 195.186867 
L 269.751602 192.342655 
L 268.329496 192.342655 
L 268.329496 188.076337 
L 261.218967 188.076337 
L 261.218967 189.498443 
L 259.796861 189.498443 
L 259.796861 183.81002 
L 261.218967 183.81002 
L 261.218967 185.232126 
L 262.641073 185.232126 
L 262.641073 183.81002 
L 264.063179 183.81002 
L 264.063179 185.232126 
L 266.90739 185.232126 
L 266.90739 183.81002 
L 269.751602 183.81002 
L 269.751602 186.654232 
L 271.173708 186.654232 
L 271.173708 188.076337 
L 274.01792 188.076337 
L 274.01792 185.232126 
L 272.595814 185.232126 
L 272.595814 182.387914 
" style="fill:#125da6;"/>
    <path clip-path="url(#p40af59ea81)" d="M 296.771615 193.764761 
L 298.193721 193.764761 
L 298.193721 198.031079 
L 302.460039 198.031079 
L 302.460039 242.116364 
L 293.927404 242.116364 
L 293.927404 236.42794 
L 289.661086 236.42794 
L 289.661086 237.850046 
L 285.394768 237.850046 
L 285.394768 233.583728 
L 286.816874 233.583728 
L 286.816874 235.005834 
L 289.661086 235.005834 
L 289.661086 219.362668 
L 288.23898 219.362668 
L 288.23898 217.940562 
L 286.816874 217.940562 
L 286.816874 219.362668 
L 285.394768 219.362668 
L 285.394768 220.784774 
L 279.706344 220.784774 
L 279.706344 217.940562 
L 282.550556 217.940562 
L 282.550556 215.096351 
L 286.816874 215.096351 
L 286.816874 213.674245 
L 292.505298 213.674245 
L 292.505298 206.563715 
L 295.349509 206.563715 
L 295.349509 200.875291 
L 291.083192 200.875291 
L 291.083192 199.453185 
L 293.927404 199.453185 
L 293.927404 198.031079 
L 296.771615 198.031079 
L 296.771615 196.608973 
L 295.349509 196.608973 
L 295.349509 195.186867 
L 296.771615 195.186867 
L 296.771615 193.764761 
" style="fill:#75b4d8;"/>
   </g>
   <g id="text_1">
    <!-- Sep-2020 -->
    <defs>
     <path d="M 53.515625 70.515625 
L 53.515625 60.890625 
Q 47.90625 63.578125 42.921875 64.890625 
Q 37.9375 66.21875 33.296875 66.21875 
Q 25.25 66.21875 20.875 63.09375 
Q 16.5 59.96875 16.5 54.203125 
Q 16.5 49.359375 19.40625 46.890625 
Q 22.3125 44.4375 30.421875 42.921875 
L 36.375 41.703125 
Q 47.40625 39.59375 52.65625 34.296875 
Q 57.90625 29 57.90625 20.125 
Q 57.90625 9.515625 50.796875 4.046875 
Q 43.703125 -1.421875 29.984375 -1.421875 
Q 24.8125 -1.421875 18.96875 -0.25 
Q 13.140625 0.921875 6.890625 3.21875 
L 6.890625 13.375 
Q 12.890625 10.015625 18.65625 8.296875 
Q 24.421875 6.59375 29.984375 6.59375 
Q 38.421875 6.59375 43.015625 9.90625 
Q 47.609375 13.234375 47.609375 19.390625 
Q 47.609375 24.75 44.3125 27.78125 
Q 41.015625 30.8125 33.5 32.328125 
L 27.484375 33.5 
Q 16.453125 35.6875 11.515625 40.375 
Q 6.59375 45.0625 6.59375 53.421875 
Q 6.59375 63.09375 13.40625 68.65625 
Q 20.21875 74.21875 32.171875 74.21875 
Q 37.3125 74.21875 42.625 73.28125 
Q 47.953125 72.359375 53.515625 70.515625 
z
" id="DejaVuSans-53"/>
     <path d="M 56.203125 29.59375 
L 56.203125 25.203125 
L 14.890625 25.203125 
Q 15.484375 15.921875 20.484375 11.0625 
Q 25.484375 6.203125 34.421875 6.203125 
Q 39.59375 6.203125 44.453125 7.46875 
Q 49.3125 8.734375 54.109375 11.28125 
L 54.109375 2.78125 
Q 49.265625 0.734375 44.1875 -0.34375 
Q 39.109375 -1.421875 33.890625 -1.421875 
Q 20.796875 -1.421875 13.15625 6.1875 
Q 5.515625 13.8125 5.515625 26.8125 
Q 5.515625 40.234375 12.765625 48.109375 
Q 20.015625 56 32.328125 56 
Q 43.359375 56 49.78125 48.890625 
Q 56.203125 41.796875 56.203125 29.59375 
z
M 47.21875 32.234375 
Q 47.125 39.59375 43.09375 43.984375 
Q 39.0625 48.390625 32.421875 48.390625 
Q 24.90625 48.390625 20.390625 44.140625 
Q 15.875 39.890625 15.1875 32.171875 
z
" id="DejaVuSans-65"/>
     <path d="M 18.109375 8.203125 
L 18.109375 -20.796875 
L 9.078125 -20.796875 
L 9.078125 54.6875 
L 18.109375 54.6875 
L 18.109375 46.390625 
Q 20.953125 51.265625 25.265625 53.625 
Q 29.59375 56 35.59375 56 
Q 45.5625 56 51.78125 48.09375 
Q 58.015625 40.1875 58.015625 27.296875 
Q 58.015625 14.40625 51.78125 6.484375 
Q 45.5625 -1.421875 35.59375 -1.421875 
Q 29.59375 -1.421875 25.265625 0.953125 
Q 20.953125 3.328125 18.109375 8.203125 
z
M 48.6875 27.296875 
Q 48.6875 37.203125 44.609375 42.84375 
Q 40.53125 48.484375 33.40625 48.484375 
Q 26.265625 48.484375 22.1875 42.84375 
Q 18.109375 37.203125 18.109375 27.296875 
Q 18.109375 17.390625 22.1875 11.75 
Q 26.265625 6.109375 33.40625 6.109375 
Q 40.53125 6.109375 44.609375 11.75 
Q 48.6875 17.390625 48.6875 27.296875 
z
" id="DejaVuSans-70"/>
     <path d="M 4.890625 31.390625 
L 31.203125 31.390625 
L 31.203125 23.390625 
L 4.890625 23.390625 
z
" id="DejaVuSans-2d"/>
     <path d="M 19.1875 8.296875 
L 53.609375 8.296875 
L 53.609375 0 
L 7.328125 0 
L 7.328125 8.296875 
Q 12.9375 14.109375 22.625 23.890625 
Q 32.328125 33.6875 34.8125 36.53125 
Q 39.546875 41.84375 41.421875 45.53125 
Q 43.3125 49.21875 43.3125 52.78125 
Q 43.3125 58.59375 39.234375 62.25 
Q 35.15625 65.921875 28.609375 65.921875 
Q 23.96875 65.921875 18.8125 64.3125 
Q 13.671875 62.703125 7.8125 59.421875 
L 7.8125 69.390625 
Q 13.765625 71.78125 18.9375 73 
Q 24.125 74.21875 28.421875 74.21875 
Q 39.75 74.21875 46.484375 68.546875 
Q 53.21875 62.890625 53.21875 53.421875 
Q 53.21875 48.921875 51.53125 44.890625 
Q 49.859375 40.875 45.40625 35.40625 
Q 44.1875 33.984375 37.640625 27.21875 
Q 31.109375 20.453125 19.1875 8.296875 
z
" id="DejaVuSans-32"/>
     <path d="M 31.78125 66.40625 
Q 24.171875 66.40625 20.328125 58.90625 
Q 16.5 51.421875 16.5 36.375 
Q 16.5 21.390625 20.328125 13.890625 
Q 24.171875 6.390625 31.78125 6.390625 
Q 39.453125 6.390625 43.28125 13.890625 
Q 47.125 21.390625 47.125 36.375 
Q 47.125 51.421875 43.28125 58.90625 
Q 39.453125 66.40625 31.78125 66.40625 
z
M 31.78125 74.21875 
Q 44.046875 74.21875 50.515625 64.515625 
Q 56.984375 54.828125 56.984375 36.375 
Q 56.984375 17.96875 50.515625 8.265625 
Q 44.046875 -1.421875 31.78125 -1.421875 
Q 19.53125 -1.421875 13.0625 8.265625 
Q 6.59375 17.96875 6.59375 36.375 
Q 6.59375 54.828125 13.0625 64.515625 
Q 19.53125 74.21875 31.78125 74.21875 
z
" id="DejaVuSans-30"/>
    </defs>
    <g transform="translate(192.655313 28.56)scale(0.12 -0.12)">
     <use xlink:href="#DejaVuSans-53"/>
     <use x="63.476562" xlink:href="#DejaVuSans-65"/>
     <use x="125" xlink:href="#DejaVuSans-70"/>
     <use x="188.476562" xlink:href="#DejaVuSans-2d"/>
     <use x="224.560547" xlink:href="#DejaVuSans-32"/>
     <use x="288.183594" xlink:href="#DejaVuSans-30"/>
     <use x="351.806641" xlink:href="#DejaVuSans-32"/>
     <use x="415.429688" xlink:href="#DejaVuSans-30"/>
    </g>
   </g>
  </g>
 </g>
 <defs>
  <clipPath id="p40af59ea81">
   <rect height="217.44" width="256.547914" x="93.126043" y="34.56"/>
  </clipPath>
 </defs>
</svg>
